<?xml version="1.0"?>
<svg xmlns:rdf="http://www.w3.org/1999/02/22-rdf-syntax-ns#" xmlns="http://www.w3.org/2000/svg" xmlns:cc="http://web.resource.org/cc/" xmlns:xlink="http://www.w3.org/1999/xlink" xmlns:dc="http://purl.org/dc/elements/1.1/" xmlns:svg="http://www.w3.org/2000/svg" id="Layer_1" xml:space="preserve" overflow="visible" viewBox="0 0 413.847 343.745" version="1.1" enable-background="new 0 0 413.847 343.745">
<g clip-rule="evenodd" fill-rule="evenodd">
	<path d="m170.28 53.182c4.185-8.352 11.59 8.482 3.082 8.476-0.064 1.22 0.371 2.939-0.771 3.082l-0.899-1.156-1.413 0.385c0.498-3.067-2.04-3.098-1.541-6.165l1.413 0.385 0.899-1.156c1.244-0.217 1.326 0.729 2.312 0.771 0.14-1.681-0.631-2.451-2.312-2.312l0.385-1.413-1.16-0.897z"/>
	<path d="m128.68 77.068c4.098-4.485 13.297-9.784 19.263-3.853l-1.046 0.936 0.275 1.376c-5.595-2.483-9.521 1.905-11.558 5.394-3.141 0.573-2.653-2.483-6.165-1.541l0.385-1.413-1.14-0.899z"/>
	<path d="m126.6 79.611l1.31 0.539c-0.184 2.127-2.865 1.758-3.853 3.082-2.076-0.872-2.028-5.329 1.541-4.623l1 1.002z"/>
	<path d="m126.36 96.331c-2.878-0.824-2.196 1.913-4.623 1.541-0.078-2.389 0.942-3.681 1.541-5.394 1.914-0.116 3.198 0.398 3.853 1.541l-1.156 0.899 0.39 1.413z"/>
	<path d="m146.4 134.09c0.686 0.341 1.378 0.677 1.541 1.541 6.292-0.128 11.996 0.333 16.951 1.541-2.992 6.519-14.544-0.345-20.804 2.312-1.68-1.611 0.385-2.199 0-4.623l1.413 0.385 0.9-1.15z"/>
	<path d="m70.888 157.97c-2.256 2.11-2.798 5.934-5.394 7.705-5.936-4.066-4.593-11.824 0-16.181 4.23 0.39 3.977 5.27 5.394 8.47z"/>
	<path d="m82.446 149.5c7.478 3.584 2.949 11.107 0 16.181-3.312-1.312-3.767-5.479-5.394-8.476 1.124-3.24 2.488-6.24 5.394-7.7z"/>
	<path d="m396.82 153.35c0.752 3.103-4.604 3.103-3.853 0 1.46-1.44 1.93-0.09 3.85 0z"/>
	<path d="m57.019 171.07c-2.007-1.56-3.808-3.476-3.853-5.394-0.162-6.871 5.817-7.763 6.164-1.541 0.153 2.74-2.269 3.1-2.311 6.93z"/>
	<path d="m376.01 165.68c4.326 0.236 2.909 6.198-0.771 3.853-0.24-1.79 0.13-2.96 0.77-3.85z"/>
	<path d="m377.56 175.7c0.14 1.681-0.631 2.451-2.312 2.312-0.213-2.971-5.031-4.233-2.312-7.706 3.318-1.007 2.437 2.187 3.853 3.082l-0.386 1.413 1.16 0.91z"/>
	<path d="m378.71 173.77l-1.155-0.385c-0.538-2.849 1.219-3.404 3.853-3.082-0.125 0.896 0.17 1.371 0.771 1.541-0.145 2.167-1.341 3.283-3.853 3.082l0.38-1.15z"/>
	<path d="m151.79 178.78c1.153 2.012 1.163 8.524-4.623 7.705-2.15-3.53-0.3-8.77 4.62-7.7z"/>
	<path d="m412.23 183.4c2.593 0.304 2.065 5.969-1.541 4.623-0.37-2.42 1.09-3.01 1.54-4.62z"/>
	<path d="m402.98 187.25h2.312v3.853c-2.16 0.12-2.22-1.88-2.31-3.85z"/>
	<path d="m87.839 190.33c2.958 1.365 2.884 7.817 0.771 10.017-5.032-1.44-3.648-7.05-0.771-10.02z"/>
	<path d="m88.61 201.89c0.109 2.973 2.604 3.561 2.312 6.935-2.221 1.408-2.41 1.25-5.394 0.771 2.15-3.324 0.306-2.839-0.771-6.164 1.47-0.33 1.394-2.2 3.853-1.54z"/>
	<path d="m359.06 212.68c0.892 3.214-0.064 3.802-0.77 6.935-2.674-1.365-1.603-2.994-4.624-0.771-1.574-2.862 0.27-4.842 0.771-7.705 1.383-0.098 1.626 0.943 3.082 0.771l0.386 1.156 1.15-0.39z"/>
	<path d="m393.74 210.37c1.52 0.831 1.316 6.393-1.541 5.394-1.59-2.81 0.34-3.46 1.54-5.39z"/>
	<path d="m164.89 336.73h1.541l-0.385 1.413 1.155 0.899c-0.704 1.351-1.432 2.677-3.853 2.312 0.315-1.856-1.407-1.675-0.771-3.854l1.413 0.386 0.9-1.16z"/>
	<path d="m139.85 339.43l0.385 1.156c0.098 1.382-0.943 1.625-0.771 3.082-1.024-0.774-2.867-0.729-3.082-2.312l1.155-0.899-0.385-1.412c1.244 0.217 1.326-0.729 2.312-0.771l0.38 1.15z"/>
	<path d="m378.33 232.71c0.212 2.704 2.87-1.934 3.082 0.771-1.237 7.844-10.23 2.411-15.41 1.541l1.155-0.899-0.385-1.412c3.831 0.235 7.069-0.122 10.017-0.771l0.385 1.155 1.15-0.39z"/>
	<path d="m349.43 241.83l1.155 0.899c0.677 1.362 2.442 2.249 0.771 3.853-5.65 0.874-10.294-1.409-13.099 2.312 0.896-3.77-1.606 0.071-2.312 0-0.574-0.058-1.187-1.24-2.312-1.541-4.596-1.228-9.78 2.023-13.099 2.312-12.095 1.051-24.906-2.902-32.362-9.246-8.303-7.064-17.268-14.979-25.427-23.116-7.744-7.724-17.242-16.784-26.198-23.115v-6.935c-5.308 8.785-3.791 18.477-7.705 26.968-1.077 2.338-4.146 3.737-5.394 6.165-2.688 5.235-2.49 10.625-3.082 16.951-3.855 4.877-3.499 13.966-6.164 20.033 2.948 3.721 1.549 7.926 2.312 12.328 1.946 11.23 6.136 24.247 3.853 34.674-2.804 12.805-4.782 27.087-9.246 38.526-0.895 0.646-2.065 1.016-3.853 0.771l0.385-0.771-0.385-0.771c2.455-12.723 6.989-27.396 4.623-42.379-5.381 8.745-12.717 15.535-15.41 26.968l-1.413-0.385-0.898 1.155c-3.008-30.297-11.343-63.35-1.542-91.691l0.899 1.155 1.413-0.385c-0.142 0.655 0.3 0.727 0.771 0.771 6.612-23.391 15.812-49.336 17.722-77.823 1.238-18.461 0.326-38.155-3.082-53.937-11.823-2.233-20.111-1.51-29.28-3.853-0.169 2.481 1.363 3.26 0.771 6.164l-1.413-0.385-0.899 1.156c-3.322-6.694-2.828-17.205-5.394-24.657l1.413 0.385 0.899-1.156c0.622 0.535 2.11 1.199 2.312 0l1.413 0.385 0.899-1.156c3.505 1.417 4.275 0.819 6.164 3.853l-1.156 0.899 0.385 1.413c-0.585-0.424-1.759 0.544-1.541 0.771 2.177 2.261 19.348 9.793 22.345 8.476-0.797 0.35-1.45-0.35-1.541-0.771l1.155-0.899-0.38-1.413c15.474 1.735 30.231 4.185 40.838 10.787 2.8 5.925 7.429 10.902 10.787 16.952 5.001 9.01 7.773 19.708 16.181 25.427v3.853l-1.002 1.001-0.539 1.31c-12.381-12.019-19.819-28.98-28.509-44.69-2.856-2.307-13.602-7.396-17.723-4.623 3.898 0.211 7.825 0.394 8.476 3.853-1.203 1.108-2.682 1.941-3.082 3.853 4.27 8.573 2.532 23.152 5.394 33.132l1.156 0.385 1.156-0.385c1.443 1.468 0.084 1.936 0 3.853 2.024 0.001 2.036-4.489 2.312-6.935 0.352-3.136 1.111-8.284-0.771-8.476-0.064 1.22 0.37 2.939-0.771 3.082l-0.898-1.156-1.413 0.385c0.51-8.478-2.327-17.697 0-25.427 5.524-0.531 7.726 8.629 9.247 14.64 2.029 1.118 2.725 2.792 3.853 4.623 0.98 1.593 1.272 3.939 2.312 5.394 1.863 2.609 4.758 2.99 5.394 6.164 2.447 12.227-11.574 16.699-16.951 24.657l-0.899-1.156-1.412 0.385c-0.731-1.92 2.751-4.648-0.771-4.623 0.359 3.034-1.615 4.001 0.771 5.394l0.898 1.156 1.413-0.385c-0.082 0.138 0.105 1.518 0 1.541 7.906-1.709 13.055-16.192 21.574-19.263 3.924 3.01 7.922 5.947 10.017 10.787-2.462 7.298-13.39 6.13-17.722 11.558 7.364-1.625 12.388-5.591 20.804-6.164 8.714 7.211 16.268 15.581 23.116 24.657-2.231 5.988-10.814 5.624-14.641 10.017 7.382 0.73 12.881-3.923 17.723-9.246 5.431-0.809 8.201 1.045 9.246 4.623-4.452 3.767-8.042 8.396-12.328 12.328-0.91-1.145-0.667-3.442-3.083-3.082l-0.898-1.155-1.413 0.385c-5.227-2.975-9.129 8.216-2.312 9.246 1.448-1.12 0.094-5.043 1.541-6.164l1.156 0.386 1.155-0.386c2.457 3.194-0.155 11.457 5.395 11.558 0.372-12.212 7.025-18.144 15.41-22.345 6.944 2.325 14.492-2.592 23.115-3.082 1.604 5.825-2.408 9.718-1.541 18.492 0.344 3.475 1.917 7.566 3.082 11.559 1.253 4.293 1.885 9.129 3.082 11.558 0.98 1.986 3.344 5.004 5.394 5.394l-0.4 1.43zm-109.03-86.17c0.124-0.537-0.269-4.484-0.77-2.312-0.67 2.93 0.41 3.86 0.77 2.31zm-3.08 24.66c-0.017-4.384 2.033-6.7 3.082-10.017-0.984-0.042-1.066-0.987-2.312-0.771-0.27 3.1-2.92 7.83-0.77 10.79zm28.51 5.39c-3.624 0.881-7.004 3.955-9.246 4.623 7.87-0.605 14.186-2.766 22.345-3.082-2.7-3.35-8.75-2.59-13.09-1.54zm16.95 24.66c0.131-1.928-1.184-2.412-2.312-3.082-0.22 2.01 0.28 3.31 2.31 3.08zm3.85 12.33c4.034 0.485 11.504 5.238 14.641 1.541-1.964-3.589-5.052-0.185-7.706-0.771-4.904-1.083-6.263-5.273-10.017-7.706 0.27 3.09 2.11 4.58 3.09 6.94z"/>
	<path d="m149.1 272.65l1.156 0.898c-0.991 1.321-1.593 3.03-3.853 3.082-0.075-1.979-3.008-1.102-3.082-3.082l1.045-0.936-0.275-1.376c1.244-0.217 1.326 0.729 2.312 0.771l1.541 1.156v-1.927h1.541l-0.39 1.42z"/>
	<path d="m105.18 184.56l-1.156 0.385c-0.883-9.181-4.252-21.072-2.312-32.362l0.899 1.156 1.413-0.385c0.414 11.658 3.266 20.877 5.394 30.821l-1.156-0.385-0.386 1.156h-1.541l-1.14-0.4z"/>
	<path d="m106.97 123.68l-1.413 0.385c-0.569-2.823 1.896-4.281 0-6.164-4.664-3.494-12.886-0.343-18.492 0-2.785 5.294-6.727 19.622-1.541 25.427l-1.156 0.899 0.385 1.413c-11.615 1.24-24.777-2.101-32.362 0-1.049 16.043-0.936 30.19 0 43.149h1.541l-0.385 1.412 1.156 0.899c-11.468 1.117-17.428 7.743-23.886 13.869 0.313 11.349 3.266 16.044 5.394 24.657l-1.156-0.386-0.385 1.156h-0.771l-0.899-1.156-1.413 0.386c0.326-1.611-0.528-2.041-0.771-3.082-1.094-0.066-2.182-0.128-2.312 0.771l-1.156-0.386-1.156 0.386c-0.655 0.142-0.727-0.301-0.771-0.771-1.245-0.218-1.327 0.728-2.312 0.771l-0.899-1.156-1.413 0.386c0.204-3.344-2.99-0.327-3.083 0.771h3.083l1.156 0.385 1.156-0.385c-2.83 23.162 9.729 37.499 19.263 50.854-0.551 2.093 3.633-0.551 3.082 1.542-0.096 7.115-8.309 7.494-16.181 10.017-6.214 1.99-11.322 6.468-13.87 6.935-7.004 1.282-11.713-1.81-14.64-6.164-0.956-14.31 1.877-29.1-0.766-38.52l1.156 0.386 1.156-0.386c2.354-6.379 3.287-14.178 6.935-19.263-3.725 0.385-4.816 3.402-6.935 5.394l-0.899-1.156-1.413 0.39c0.979-6.974-0.911-13.475 0.771-19.264 1.593-5.483 7.729-12.162 12.328-18.492 4.514-6.213 8.453-13.441 12.329-18.492 2.475-3.227 4.962-4.907 6.935-8.476 0.875-1.584 1.452-3.53 2.312-5.394 1.679-3.64 2.733-5.709 4.623-10.787 5.053 2.909 5.573 10.351 6.935 16.951 1.028-3.279 0.329-8.977-1.541-13.869-1.094-2.862-3.332-3.865-3.082-6.164 0.211-1.945 2.344-5.967 6.164-4.624-2.011-5.185-1.59-12.657 3.083-16.951 3.998-3.675 11.106-4.228 16.951-6.935 12.596-5.833 21.944-19.29 30.821-22.345-0.146-0.624-0.773-0.768-0.771-1.541l1.156-0.899-0.385-1.413c2.357-0.559 2.267 1.329 4.623 0.771 0.408-0.62 0.804-1.251 0.771-2.312l1.413 0.385 0.899-1.156c1.997 2.035 2.865 0.733 5.394 1.541l0.936 1.045 1.376-0.275c-1.112 2.483-0.729 6.463-0.771 10.017l-1.156 0.899 0.385 1.413c-3.765 2.399-1.836 10.493-4.624 13.87l-0.91-1.18z"/>
	<path d="m95.416 220.77l0.899-1.156c11.131 15.837 19.405 34.532 20.034 60.871h1.541l0.385 1.156 1.156-0.385c-2.659 11.567-6.032 24.193-9.246 36.984-1.831 7.282-1.271 16.164-5.394 22.346-4.434-2.206-3.848-8.788-4.623-13.1-2.457-13.664-6.202-29.375-10.017-42.378h-1.541l0.385-1.156-1.156-0.385c-1.722-4.323-3.564 3.278-3.853 5.394l-1.413-0.386-0.899 1.156c-0.624-0.146-0.768-0.773-1.541-0.771-0.315 2.767-0.195 5.969-2.312 6.935l-0.899-1.156-1.413 0.386c0.794-29.092 12.865-44.084 20.804-67.035 0.318-3.657-2.629-4.049-2.312-7.705l1.403 0.39zm-10.659 55.09c-0.213-1.351 2.169-3.844 0-4.623 0.213 1.35-2.17 3.84 0 4.62z"/>
	<path d="m85.143 291.66l1.156-0.385c-0.959 7.773-3.553 13.912-4.623 21.574-1.708 0.424-1.097-1.471-2.312-1.541l-0.386-1.155-1.155 0.385c0.857-7.105 2.541-13.383 3.853-20.033l1.156 0.385 1.156-0.385h0.771l0.384 1.14z"/>
	<path d="m75.125 325.56l1.156-0.386c-0.089 2.496-1.472 10.329-2.312 14.641l-1.156-0.386-1.156-0.385h-0.771l-0.899-1.156-1.413 0.385c1.706-5.229 1.261-12.608 3.082-17.722l0.899 1.156 1.413-0.386c0.064 1.221-0.371 2.939 0.771 3.082l0.386 1.17z"/>
	<path d="m79.749 205.1l-1.156-0.899v-1.541c-5.212-3.375-15.767 0.456-22.345 0.771l0.385-1.412-1.156-0.899c3.344-5.131 14.286-2.665 20.033-5.394-0.598-0.686-0.828-1.74-0.771-3.082l1.413 0.386 0.899-1.156c1.856 0.315 1.675-1.407 3.853-0.771 1.338 6.41 5.584 10.106 1.541 16.181-1.382 0.098-1.625-0.943-3.082-0.771l0.386-1.42z"/>
	<path d="m73.695 190.5l0.275 1.376c-1.351-0.704-3.844-0.265-4.623-1.541l0.385-1.156-0.385-1.155c1.846-2.147-3.125-4.033-2.312-7.705 2.497-3.411 2.736-9.079 6.935-10.788 1.294 4.1 2.348 8.44 4.624 11.558-1.268 2.586-6.3 4.646-3.853 8.476l-1.046 0.93z"/>
	<path d="m47.387 274.71l0.385-1.156c1.14 0.893 1.942 0.893 3.083 0l0.385 1.156 0.385 1.155c1.095 2.368 0.346 3.466-0.771 5.395-2.899-0.184-3.005-3.16-3.853-5.395l0.386-1.15z"/>
	<path d="m93.618 98l0.385 1.413c-3.062 0.493-4.159-0.978-5.394-2.312 0.287-2.576 5.636-1.732 6.164 0l-1.155 0.899z"/>
	<path d="m100.3 89.782l-0.899 1.156c-3.153-3.427-1.13-7.296-1.541-13.099 0.061-2.886-3.322-2.329-2.312-6.164l1.413 0.385 0.899-1.156c7.685-0.118 12.999 6.409 16.181 13.099l-1.413-0.385-0.899 1.156c-1.371-0.685-1.958-2.151-4.624-1.541-1.839-1.526-2.537-8.215-6.164-5.394 1.126 0.672 2.984 0.612 2.312 3.082l-1.156 0.385 0.385 1.156h-0.771c-1.806 2.033-0.129 5.254 0 7.706l-1.41-0.386z"/>
	<path d="m95.416 42.78l-1.413 0.385c-3.241-2.791-1.226-4.794 0-8.476 1.787-0.246 2.958 0.124 3.853 0.771 0.742-2.796-3.462-0.647-3.082-3.082-0.12-2.175 2.178-1.932 3.082-3.083-1.159-6.053 5.265-8.585 3.853-12.328 1.042-2.631 6.28-2.254 3.853-6.164 4.261-0.62 4.862-4.898 10.017-4.623 0.034-1.318-0.573-1.996-1.541-2.312 11.439-3.159 29.182-5.583 43.919-2.312 6.104 1.355 14.885 7.394 16.952 13.869 2.068 6.479-0.133 15.117 3.082 23.116-0.343 2.482-1.476 4.174-1.541 6.935 0.323 2.502 3.431 2.22 3.082 5.394l-1.156-0.385-1.156 0.385c-4.319-5.176-12.522-0.964-14.64 6.164-0.824 2.773 2.295 9.123-2.312 10.017-4.163-5.854 0.601-20.634-6.164-23.886-7.849 0.738-30.679 16.071-33.903 6.164l-0.385-0.385-0.385-0.385h0.771c-0.07-2.102 1.283-1.551 0-3.082h0.771v-0.771c1.532-8.232 6.497-17.126 6.935-23.886-3.751 6.315-7.897 16.178-7.705 23.886h-0.771v0.771c-1.284 1.531 0.07 0.98 0 3.082l-1.156-0.385 0.385 1.156c-6.723 3.422-15.108-4.252-22.345-5.394l-0.919-1.156zm37.884-30.436c-0.507-3.873 4.644-6.109 3.083-8.476-3.853 8.476-5.009 9.375-5.009 9.375l0.385 1.413c-1.318-0.034-1.996 0.573-2.312 1.541 2.312-1.541 3.467-2.44 3.467-2.44l-0.385-1.413c-0.01 0-1.11-2.677 0.76 0zm32.36 6.164c1.912 0.113 3.739 0.144 3.853-1.541-1.91-0.113-3.73-0.143-3.85 1.541z"/>
	<path d="m172.72 76.683l1.413-0.385c2.014 1.325 5.399 1.278 5.394 4.623l-1.376-0.275-0.936 1.045c-0.75 0.021-0.598 0.943-0.771 1.541l-1.413-0.385-0.899 1.156c-1.563-0.491-0.507-3.602-2.312-3.853-0.653 1.146-2.481 1.115-3.853 1.541v5.394l-1.413-0.385-0.899 1.156c-1.874-2.68-0.517-8.709 0.771-10.787h4.624c-0.125-0.896 0.17-1.371 0.771-1.541l0.91 1.155z"/>
	<path d="m359.7 170.69l-1.412 0.385c0.117-3.735 1.484-6.22 3.082-8.476l0.898 1.156 1.413-0.385c1.352 3.528 1.352 4.947 0 8.476-1.531 1.284-0.98-0.069-3.082 0l-0.9-1.17z"/>
	<path d="m365.61 153.48l-1.155-0.899c1.749-0.562 1.365-3.258 2.312-4.624 3.531 2.716 6.19 3.6 10.787 3.853l-1.156 0.899 0.386 1.413c-1.245-0.217-1.326 0.728-2.312 0.771l-1.156-1.349-1.155 1.349h-1.541l-2.312-0.963-2.312 0.963h-0.771l0.38-1.41z"/>
	<path d="m411.07 170.69l1.155-0.385c1.144 0.655 1.657 1.939 1.541 3.853l-1.412-0.385-0.899 1.156h-1.541l-0.385-1.156-1.156-0.385c0.401-1.14 1.141-1.942 1.541-3.082l1.17 0.39z"/>
	<path d="m397.97 189.18l1.155 0.386c-0.126 3.465-0.172 6.85 2.312 7.705l-0.385 1.413 1.155 0.898c-0.67 1.128-1.153 2.442-3.082 2.312l-0.898-1.155-1.413 0.385v-1.541c-3.101-2.568-7.106 0.082-9.246-3.853 6.423 8.945-6.519 16.408-8.476 7.705-0.931-4.137 5.196-7.727 4.623-7.705-3.073-0.762-2.32 2.303-5.394 1.541-1.918-1.165-3.522-2.642-3.853-5.394 2.238-5.521 6.298-6.293 11.558-3.082l0.898 1.155 1.413-0.385v0.771c2.186 0.995 4.364-3.188 8.476-0.771-0.125-0.896 0.17-1.371 0.771-1.541l0.39 1.14z"/>
	<path d="m399.26 216.92l1.412-0.386c0.648 1.921 1.009 4.129 0.771 6.936-1.133 2.931 3.444 0.151 2.312 3.082-3.991 9.024-14.946 1.615-21.574 4.623l-0.386-1.156-1.155-0.385c-1.741-1.626-10.353-0.213-13.099-3.082l1.155-0.899-0.385-1.412c8.897 0.604 17.431 1.575 24.656 3.853v-6.164c1.966-0.277 5.562-0.533 3.853-3.083l0.386-1.412-1.156-0.899c0.125-0.902 1.405-0.649 2.312-0.771l0.89 1.16z"/>
	<path d="m121.36 109.04l-1.156-0.385c1.128-7.984 10.4-6.495 16.181-4.623l-1.156 0.899 0.386 1.413c-2.671 0.411-7.309-1.144-7.706 1.541l-1.156 0.899 0.385 1.413c-1.809 1.821-3.785-0.125-6.164 0l0.4-1.16z"/>
	<path d="m165.28 124.2l-1.156-0.899c0.114-1.685 1.941-1.655 3.853-1.541 0.434 1.672 1.84 6.31 0 7.705l-0.899-1.156-1.413 0.385c-0.064-1.22 0.371-2.939-0.771-3.082l0.39-1.4z"/>
	<path d="m167.08 135.24l0.899-1.156c1.296 1.099 1.735 7.855-1.542 6.935-0.466-1.845-1.107-3.515-0.771-6.164l1.41 0.38z"/>
	<path d="m139.08 135.24l1.156-0.385c1.623 0.63 2.114 4.062 0.771 5.394-2.432 0.377-2.721-1.388-5.394-0.771l0.385-1.413-1.156-0.899c1.365-0.947 3.122-1.501 3.853-3.082l0.39 1.15z"/>
	<path d="m134.3 138.94l1.31 0.539c-4.341 3.878-10.827 5.611-16.952 7.705-0.171-1.443-1.987-5.106 0-6.164l1.156 0.385 1.156-0.385v0.771c3.84 1.304 7.617-3.52 12.328-3.853l0.99 1z"/>
	<path d="m191.73 176.08l-1.413 0.386c2.57-15.752-3.624-27.636-4.623-43.92l1.413 0.385 0.899-1.156c4.144 14.321 7.454 29.188 8.476 44.69l-1.413-0.386-0.898 1.156h-1.542l-0.91-1.16z"/>
	<path d="m389.88 159.51c1.968 1.884 8.049-0.343 10.017 1.541l-0.385 1.156 1.155 0.385c-1.2 5.548-11.637 4.541-12.328-0.771l1.002-1.001 0.53-1.32z"/>
	<path d="m387.44 186.87l-1.412 0.386c-1.035-1.127-1.575-6.103 0.771-6.164 2.604-0.293 3.287 1.335 4.623 2.312-0.183 2.386-2.144 2.992-3.082 4.623l-0.9-1.16z"/>
	<path d="m378.71 157.59l1.156-0.385c1.984 0.583 2.677 2.459 2.312 5.394-3.513-2.349-6.621 2.035-7.705-0.771 0.33-2.752 1.935-4.229 3.853-5.394l0.38 1.16z"/>
	<path d="m371.78 165.29l1.156-0.385c-1.165 2.945-1.323 6.896-3.082 9.246l-0.899-1.156-1.412 0.385v-5.394l2.16-0.787 0.151-2.295h0.771l1.15 0.39z"/>
	<path d="m368.44 176.85l1.413-0.385c-0.753 4.384-0.76 9.514-2.312 13.099l-0.899-1.156-1.412 0.386c0.142-0.655-0.301-0.727-0.771-0.771l-1.156-0.386-1.155 0.386c1.791-4.116 3.559-8.255 5.394-12.328l0.91 1.16z"/>
	<path d="m364.07 198.42l1.927-0.386c0.326 1.61-0.528 2.04-0.771 3.082l-1.156-0.385-1.155-0.386c-4.479 3.879-3.536-7.504-2.312-9.246l0.898 1.155 1.413-0.385c0.443 1.354-0.932 4.527 0.771 4.623l0.38 1.94z"/>
	<g stroke="#000" stroke-linecap="round" fill="none">
		<path stroke-width="2.1898" d="m142.16 65.125c1.208-3.934 1.297-8.374 3.082-12.329"/>
		<path stroke-width="2.0866" d="m169.13 68.207c1.97-0.751 2.309-2.805 2.568-4.623"/>
		<path stroke-width="2.3679" d="m171.44 54.081c-1.786 0.492-1.691 2.701-1.284 4.109"/>
		<path stroke-width="2.4657" d="m146.89 74.151c5.705 2.695 7.387 9.077 3.743 14.09"/>
		<path stroke-width="2.4366" d="m126.6 79.611c0.65-0.684 2.009-1.287 3.236-1.644"/>
		<path stroke-width="2.1699" d="m131.37 83.232c3.493 0.877 7.529 0.112 10.163-2.416 0.156-0.461 0.244-0.932 0.368-1.309"/>
		<path stroke-width="2.1588" d="m131.89 88.498c2.118 2.233 4.639 4.326 7.962 3.596"/>
		<path stroke-width="2.6279" d="m134.07 100.18c-3.568-0.531-5.408-3.377-8.09-5.265"/>
		<path stroke-width="2.2464" d="m146.78 109.04c-0.046-0.514-0.213-1.027-0.385-1.541"/>
		<path stroke-width="2.3806" d="m125.98 113.67h3.853"/>
		<path stroke-width="2.3371" d="m145.24 132.93c-0.015 0.771 0.117 1.541 0.257 2.312"/>
		<path stroke-width="2.1055" d="m56.633 156.05c0.251-0.145 0.502-0.289 0.753-0.434 0.568-0.803 0.528-2.261 0.383-3.263-0.729-0.756-1.761-1.296-1.906-2.467"/>
		<path stroke-width="2.1794" d="m376.4 174.8c0.987-0.405 1.578-0.695 2.312-1.027"/>
		<path stroke-width="1.8769" d="m357.91 213.06c0.643-2.272 0.883-4.67 1.541-6.935"/>
		<path stroke-width="2.2138" d="m166.05 338.15c7.959-5.949 15.653-12.788 22.858-19.776"/>
		<path stroke-width="2.3586" d="m137.54 340.46c-8.631-7.277-13.535-18.121-22.345-25.299"/>
		<path stroke-width="2.1633" d="m139.85 339.43c5.341-6.646 7.956-15.473 14.511-20.933"/>
		<path stroke-width="2.706" d="m154.36 318.5c0.333-1.596 1.15-2.981 1.669-4.494"/>
		<path stroke-width="2.1921" d="m154.36 318.5c4.075 5.752 7.391 12.688 9.631 19.392"/>
		<path stroke-width="2.0386" d="m352.2 239.57c-0.894 0.687-1.82 1.67-2.773 2.26"/>
		<path stroke-width="1.2484" d="m204.57 343.28c1.321-0.054 1.951-0.377 3.082-0.385"/>
		<path stroke-width="2.3956" d="m195.33 327.87c-0.03-0.514-0.142-1.027-0.257-1.541"/>
		<path stroke-width="2.0535" d="m116.13 240.08c-0.558 6.379 2.448 12.482 2.526 18.835"/>
		<path stroke-width="2.5223" d="m116.13 240.08c-5.814-18.01-9.096-36.707-10.958-55.52"/>
		<path stroke-width="2.6075" d="m102.61 153.74c-0.291-10.217 1.852-20.136 4.367-30.05"/>
		<path stroke-width="3.1204" d="m91.603 214.49c1.826 1.719 3.198 3.822 3.813 6.283"/>
		<path stroke-width="1.9069" d="m118.28 281.64c0.567-3.356 1.975-6.452 1.926-10.017"/>
		<path stroke-width="2.3818" d="m72.814 342.51v-3.082"/>
		<path stroke-width="2.1657" d="m69.347 342.51c0.446-1.513 0.224-3.108 0.642-4.623"/>
		<path stroke-width="2.7002" d="m72.557 321.71c1.592-9.021 1.784-18.144 4.366-26.969"/>
		<path stroke-width="1.9569" d="m66.65 222.31c4.163 7.141-5.575 11.766-9.824 15.41"/>
		<path stroke-width="2.9968" d="m56.826 237.72c-1.579 8.768 0.858 19.188-5.329 26.455"/>
		<path stroke-width="1.9739" d="m56.826 237.72c-2.824 0.284-5.341 1.748-7.384 3.596"/>
		<path stroke-width="2.2114" d="m44.69 235.41c3.893-8.357 14.222-9.723 21.96-13.099"/>
		<path stroke-width="2.3749" d="m66.65 222.31c3.898-2.363 6.554-6.362 10.367-8.966"/>
		<path stroke-width="1.754" d="m77.017 213.34c-0.232-2.006 0.853-4.481-1.313-5.866"/>
		<path stroke-width="2.3079" d="m75.704 207.48c-11.214 2.108-21.325 7.998-31.399 13.291"/>
		<path stroke-width="2.006" d="m75.704 207.48c1.108-1.022 2.665-1.628 4.045-2.376"/>
		<path stroke-width="2.2478" d="m56.633 202.02c-6.938 0.917-12.404 5.943-18.493 8.732"/>
		<path stroke-width="1.796" d="m38.141 242.34c-0.877-4.504-1.419-8.953-3.082-13.099"/>
		<path stroke-width="2.6004" d="m29.28 243.5c0.305 12.888 10.881 21.758 18.107 31.206"/>
		<path stroke-width="2.2179" d="m51.24 274.71c0.279-0.603 0.534-1.39 0.771-2.312"/>
		<path stroke-width="2.5226" d="m29.28 243.5c-2.745-4.896-1.69-11.069-1.926-16.566"/>
		<path stroke-width="2.0945" d="m1.156 252.36c-0.815-5.113 0.018-10.291 0.257-15.411"/>
		<path stroke-width="2.7782" d="m93.618 98c1.86 0.535 3.53 1.528 5.394 2.055"/>
		<path stroke-width="2.3604" d="m105.43 97.487c-1.813-2.495-3.477-5.116-5.137-7.705"/>
		<path stroke-width="3.4932" d="m96.957 72.06c-1.672-9.572-6.327-19.826-1.541-29.28"/>
		<path stroke-width="2.7286" d="m186.08 87.213c7.377 2.084 13.593 6.493 20.804 8.99"/>
		<path stroke-width="3.4908" d="m273.3 152.81c2.467 3.94 10.055 9.637 17.455 15.912 9.658 8.19 15.704 20.128 25.119 22.713 8.384 2.302 18.475-3.24 27.433-2.085"/>
		<path stroke-width="2.5061" d="m343.31 189.35c5.33-6.304 13.771-10.281 16.395-18.664"/>
		<path stroke-width="2.6968" d="m362.27 163.75c0.48-0.84 1.222-1.635 2.184-2.697"/>
		<path stroke-width="2.9612" d="m364.46 161.06c-2.498-1.863-1.814-6.646 1.155-7.577"/>
		<path stroke-width="2.8085" d="m376.4 152.71c1.356 0.453 2.979 0.317 4.109 1.284"/>
		<path stroke-width="2.6066" d="m380.51 153.99c2.77-0.029 5.4 0.673 8.026 1.477"/>
		<path stroke-width="2.7677" d="m388.54 155.47c1.041-7.755 12.542-13.082 14.814-3.285-0.492 2.057-1.334 4.191-0.906 6.329"/>
		<path stroke-width="2.4366" d="m402.44 158.51c6.146 0.684 10.32 6.083 8.63 12.174"/>
		<path stroke-width="1.8342" d="m413 178.39c0.173-1.583 0.069-3.167-0.643-4.624"/>
		<path stroke-width="2.6532" d="m407.99 195.73c0.472-1.174 0.973-2.336 1.541-3.468"/>
		<path stroke-width="2.0386" d="m405.68 212.29c1.408 1.732 1.686 4.002 1.541 6.164"/>
		<path stroke-width="2.4366" d="m131.37 13.243c0.514 0.171 1.027 0.342 1.541 0.514"/>
		<path stroke-width=".9947" d="m119.43 44.706c0.523 0.248 1.071 0.47 1.541 0.771"/>
		<path stroke-width="2.5787" d="m112.11 109.56c1.481 0.718 3.095 1.021 4.623 1.605"/>
		<path stroke-width="2.1944" d="m116.73 111.16c1.598-0.672 3.294-0.938 4.623-2.119"/>
		<path stroke-width="2.069" d="m137.54 105.19c5.321-2.554 11.346-5.893 15.411-10.017"/>
		<path stroke-width="2.3348" d="m138.31 108.02c1.696 1 1.528 3.182 1.541 4.88"/>
		<path stroke-width="2.5443" d="m116.73 111.16c-0.438 12.182 9.355 21.076 21.382 17.529"/>
		<path stroke-width="2.0952" d="m138.12 128.69c4.711-1.098 9.929-2.895 12.521-7.32"/>
		<path stroke-width="2.7192" d="m150.64 121.37c0.562-1.837 1.179-3.645 1.431-5.559"/>
		<path stroke-width="2.3941" d="m152.07 115.81c-1.353-3.308-0.35-7.112-0.661-10.622"/>
		<path stroke-width="2.7643" d="m152.07 115.81c5.425-8.555 16.119-17.804 14.493-29.115"/>
		<path stroke-width="2.8027" d="m172.72 76.683c0.094-9.427 11.018-16.378 5.65-26.198"/>
		<path stroke-width=".9947" d="m118.28 48.173c0.514 0.421 1.027 0.602 1.541 0.771"/>
		<path stroke-width="1.8874" d="m102.09 81.306c1.871 0.907 2.057 3.949 4.624 3.853"/>
		<path stroke-width="2.7592" d="m112.66 98.917c-0.162-5.076 0.138-10.241-0.037-15.3"/>
		<path stroke-width="2.0142" d="m150.64 121.37c1.165 0.438 2.505 1.762 2.89 2.312"/>
		<path stroke-width="2.1874" d="m153.53 123.68c2.366-0.063 4.429-1.312 6.715-1.604 0.695 0.394 1.163 1.442 1.953 2.374"/>
		<path stroke-width="2.3838" d="m162.19 124.46c1.027 0.041 2.055-0.044 3.083-0.257"/>
		<path stroke-width="2.3791" d="m167.08 135.24c-0.372-2.265-0.426-4.672 0-6.935"/>
		<path stroke-width="1.6881" d="m152.82 127.67c-1.209 1.223-1.904 1.591-2.44 1.926"/>
		<path stroke-width="1.5602" d="m138.12 128.69c1.455 1.811 1.816 4.401 0.963 6.549"/>
		<path stroke-width="2.613" d="m136 138.07c-0.534 0.195-1.102 0.496-1.695 0.874"/>
		<path stroke-width="2.4702" d="m119.82 141.41c-0.428-2.657 1.015-5.068 0.771-7.705"/>
		<path stroke-width="2.2243" d="m149.1 272.65c1.667-0.897 2.612-2.794 4.431-3.531"/>
		<path stroke-width="2.5208" d="m153.53 269.12c18.056-28.13 33.669-59.352 38.205-93.041"/>
		<path stroke-width="3.157" d="m187.11 132.93c-2.131-8.512-4.306-16.924-6.678-25.427"/>
		<path stroke-width="2.4366" d="m175.04 82.847c0.171 0.514 0.342 1.027 0.514 1.541"/>
		<path stroke-width="2.3371" d="m180.17 83.617c-0.652-1.044-1.518-2.036-2.018-2.972"/>
		<path stroke-width="2.4327" d="m194.38 222.35c0.79 4.986-0.659 9.681-0.856 14.597"/>
		<path stroke-width="2.3635" d="m238.48 146.03c-0.101-3.412 0.998-6.586 1.027-10.017"/>
		<path stroke-width="2.3704" d="m126.75 108.79c3.894 0.886 7.673-0.713 11.558-0.771"/>
		<path stroke-width="1.8476" d="m138.31 108.02c-0.161-0.796-0.404-1.833-0.771-2.825"/>
		<path stroke-width="2.3874" d="m137.54 105.19c-0.771 0.015-1.541-0.117-2.312-0.257"/>
		<path stroke-width="3.0579" d="m153.53 123.68c-0.427 1.281-1.29 2.598-0.707 3.981"/>
		<path stroke-width="2.2703" d="m152.82 127.67c3.306 0.037 6.619-1.525 9.375-3.21"/>
		<path stroke-width="2.9001" d="m53.551 190.21c5.259-1.619 10.75-1.702 16.181-1.027"/>
		<path stroke-width="2.1102" d="m73.695 190.5c0.865 0.676 1.841 1.611 2.458 2.532"/>
		<path stroke-width="3.1406" d="m77.017 213.34c4.634 1.884 9.775 0.377 14.586 1.142"/>
		<path stroke-width="2.5275" d="m91.603 214.49c2.83-15.035 2.582-31.011 3.213-45.527 0.422-9.706 5.038-26.492-9.673-24.548-0.257-0.06-0.514-0.12-0.771-0.18"/>
		<path stroke-width="2.4162" d="m388.54 155.47c0.599 1.725-0.456 3.869 0.81 5.355"/>
		<path stroke-width="2.3874" d="m386.93 189.95c0.191-1.027 0.266-2.055 0.514-3.082"/>
		<path stroke-width="1.8413" d="m397.97 189.18c2.707-5.844 7.168-10.602 11.558-15.41"/>
		<path stroke-width="2.5389" d="m402.44 158.51c-1.321 0.991-1.281 3.016-2.928 3.698"/>
		<path stroke-width="1.3712" d="m380.51 153.99c-0.875 1.054-1.231 2.378-1.798 3.596"/>
		<path stroke-width="2.7402" d="m360.6 222.12c0.869 3.749 5.33 2.647 8.09 3.531"/>
		<path stroke-width="2.2428" d="m397.2 217.43c-3.714 0.034-6.966 2.247-10.703 2.316-0.982-0.382-1.624-1.666-1.931-2.206 0.331-8.521 10.453-10.047 13.661-16.805"/>
			<line x2="364.46" y1="161.06" x1="364.46" y2="161.06" stroke-width="4.6231"/>
		<path stroke-width="2.0386" d="m364.46 161.06c2.146-1.887 1.776-5.144 3.853-7.127"/>
		<path stroke-width="2.079" d="m371.78 165.29c0.452-3.917 1.563-7.77 1.541-11.75"/>
		<path stroke-width="2.1412" d="m368.31 153.93c1.684 2.703 1.375 6.997-0.716 9.384"/>
		<path stroke-width="3.6819" d="m367.59 163.31c0.617 1.355 0.681 3.047 2.105 3.891"/>
		<path stroke-width="3.4025" d="m364.46 161.06c1.021 0.785 2.067 1.54 3.137 2.256"/>
		<path stroke-width="2.3956" d="m240.53 167.6c0.165-0.771 0.313-1.541 0.514-2.312"/>
		<path stroke-width="1.8874" d="m357.14 223.08c0.967-0.256 2.12-0.431 3.468-0.963"/>
		<path stroke-width="2.2868" d="m360.6 222.12c0.866-7.133 2.292-14.285 3.467-21.382"/>
		<path stroke-width="2.3276" d="m361.5 192.26c0.203-1.688 1.504-2.98 1.798-4.623"/>
		<path stroke-width="2.3838" d="m368.44 176.85c0.258-1.284 0.195-2.568 0.514-3.853"/>
		<path stroke-width="3.2291" d="m343.31 189.35c-1.08 16.958-1.503 35.537 8.895 50.221"/>
		<path stroke-width="3.2162" d="m352.2 239.57c1.329 0.91 2.33 2.342 3.809 3.006 3.751-1.785 3.391-6.641 4.573-10.015"/>
		<path stroke-width="2.827" d="m360.59 232.56c-1.498-2.519-5.178-2.14-7.303-4.087"/>
		<path stroke-width="2.9731" d="m360.59 232.56c2.311-0.188 4.406 0.941 6.566 1.563"/>
		<path stroke-width="1.9437" d="m377.17 233.1c1.052-1.479 3.047-2.106 4.623-3.082"/>
		<path stroke-width="1.9201" d="m153.53 269.12c0.2 0.124 0.399 0.249 0.599 0.374 0.638 0.385 0.997 0.512 1.342 0.626 16.433-12.645 25.854-32.624 38.918-47.767"/>
		<path stroke-width="2.5963" d="m194.38 222.35c3.071-14.921 1.946-31.066 0.685-46.274"/>
		<path stroke-width="2.2541" d="m147.94 273.17c-16.812-28.197-30.699-57.68-39.682-89.38"/>
		<path stroke-width="1.6581" d="m116.13 240.08c10.28 9.427 16.342 23.972 28.228 32.539"/>
		<path stroke-width="2.3749" d="m364.07 198.42c1.883-3.082 1.426-6.696 2.568-10.018"/>
		<path stroke-width="1.9069" d="m399.26 216.92c1.873-1.855 3.914-3.685 6.421-4.623"/>
		<path stroke-width="2.662" d="m405.68 212.29c1.425-5.334 4.047-11.025 2.312-16.566"/>
		<path stroke-width="2.09" d="m407.99 195.73c-2.525 0.481-4.231 2.857-6.935 2.954"/>
		<path stroke-width="2.0925" d="m294.72 207.67c0.181-1.284 0.58-2.568 1.027-3.853"/>
		<path stroke-width="2.3749" d="m21.96 227.7c0.031-0.514 0.142-1.027 0.257-1.541"/>
		<path stroke-width="2.0257" d="m29.28 243.5c0.528-0.176 1.17-0.463 1.896-0.829 1.164-4.321 1.044-8.986 1.828-13.426"/>
		<path stroke-width="1.8761" d="m85.143 291.66c1.397-2.542 1.337-5.868 3.853-7.705"/>
		<path stroke-width="1.8826" d="m75.125 325.56c1.781-4.99 1.395-10.807 3.853-15.41"/>
		<path stroke-width="2.3749" d="m82.831 290.89c0.015-0.771-0.118-1.541-0.257-2.312"/>
	</g>
</g>
<metadata><rdf:RDF><cc:Work><dc:format>image/svg+xml</dc:format><dc:type rdf:resource="http://purl.org/dc/dcmitype/StillImage"/><cc:license rdf:resource="http://creativecommons.org/licenses/publicdomain/"/><dc:publisher><cc:Agent rdf:about="http://openclipart.org/"><dc:title>Openclipart</dc:title></cc:Agent></dc:publisher><dc:title>card trick</dc:title><dc:date>2006-11-04T20:15:34</dc:date><dc:description>a magician doing a card trick</dc:description><dc:source>http://openclipart.org/detail/1259/card-trick-by-johnny_automatic</dc:source><dc:creator><cc:Agent><dc:title>johnny_automatic</dc:title></cc:Agent></dc:creator><dc:subject><rdf:Bag><rdf:li>card trick</rdf:li><rdf:li>cards</rdf:li><rdf:li>clip art</rdf:li><rdf:li>clipart</rdf:li><rdf:li>entertainment</rdf:li><rdf:li>externalsource</rdf:li><rdf:li>image</rdf:li><rdf:li>magic</rdf:li><rdf:li>magician</rdf:li><rdf:li>man</rdf:li><rdf:li>media</rdf:li><rdf:li>occupation</rdf:li><rdf:li>png</rdf:li><rdf:li>public domain</rdf:li><rdf:li>svg</rdf:li></rdf:Bag></dc:subject></cc:Work><cc:License rdf:about="http://creativecommons.org/licenses/publicdomain/"><cc:permits rdf:resource="http://creativecommons.org/ns#Reproduction"/><cc:permits rdf:resource="http://creativecommons.org/ns#Distribution"/><cc:permits rdf:resource="http://creativecommons.org/ns#DerivativeWorks"/></cc:License></rdf:RDF></metadata></svg>
